<svg width="176" height="27" viewBox="0 0 176 27" fill="none" xmlns="http://www.w3.org/2000/svg">
<path d="M0.875 8.42969V6H13.6406V8.42969H8.69531V22H5.82031V8.42969H0.875ZM22.2616 22V6H28.2616C29.4907 6 30.522 6.21354 31.3553 6.64062C32.1939 7.06771 32.8267 7.66667 33.2538 8.4375C33.686 9.20312 33.9022 10.0964 33.9022 11.1172C33.9022 12.1432 33.6834 13.0339 33.2459 13.7891C32.8136 14.5391 32.1756 15.1198 31.3319 15.5312C30.4881 15.9375 29.4517 16.1406 28.2225 16.1406H23.9491V13.7344H27.8319C28.5506 13.7344 29.1392 13.6354 29.5975 13.4375C30.0558 13.2344 30.3944 12.9401 30.6131 12.5547C30.8371 12.1641 30.9491 11.6849 30.9491 11.1172C30.9491 10.5495 30.8371 10.0651 30.6131 9.66406C30.3892 9.25781 30.048 8.95052 29.5897 8.74219C29.1314 8.52865 28.5402 8.42188 27.8162 8.42188H25.16V22H22.2616ZM30.5272 14.75L34.4881 22H31.2537L27.3631 14.75H30.5272ZM42.7302 22V6H53.1364V8.42969H45.6286V12.7734H52.5973V15.2031H45.6286V19.5703H53.1989V22H42.7302ZM75.4019 6V22H72.8238L65.2847 11.1016H65.1519V22H62.2534V6H64.8472L72.3784 16.9062H72.5191V6H75.4019ZM86.7748 22H83.681L89.3138 6H92.892L98.5326 22H95.4388L91.1654 9.28125H91.0404L86.7748 22ZM86.8763 15.7266H95.3138V18.0547H86.8763V15.7266ZM112.222 22H106.8V6H112.331C113.92 6 115.284 6.32031 116.425 6.96094C117.571 7.59635 118.451 8.51042 119.066 9.70312C119.68 10.8958 119.988 12.3229 119.988 13.9844C119.988 15.651 119.678 17.0833 119.058 18.2812C118.443 19.4792 117.555 20.3984 116.394 21.0391C115.238 21.6797 113.847 22 112.222 22ZM109.698 19.4922H112.081C113.196 19.4922 114.126 19.2891 114.87 18.8828C115.615 18.4714 116.175 17.8594 116.55 17.0469C116.925 16.2292 117.113 15.2083 117.113 13.9844C117.113 12.7604 116.925 11.7448 116.55 10.9375C116.175 10.125 115.62 9.51823 114.886 9.11719C114.157 8.71094 113.251 8.50781 112.167 8.50781H109.698V19.4922ZM143.198 14C143.198 15.724 142.875 17.2005 142.23 18.4297C141.589 19.6536 140.714 20.5911 139.605 21.2422C138.5 21.8932 137.248 22.2187 135.847 22.2187C134.446 22.2187 133.19 21.8932 132.081 21.2422C130.977 20.5859 130.102 19.6458 129.456 18.4219C128.815 17.1927 128.495 15.7187 128.495 14C128.495 12.276 128.815 10.8021 129.456 9.57812C130.102 8.34896 130.977 7.40885 132.081 6.75781C133.19 6.10677 134.446 5.78125 135.847 5.78125C137.248 5.78125 138.5 6.10677 139.605 6.75781C140.714 7.40885 141.589 8.34896 142.23 9.57812C142.875 10.8021 143.198 12.276 143.198 14ZM140.284 14C140.284 12.7865 140.094 11.763 139.714 10.9297C139.339 10.0911 138.818 9.45833 138.151 9.03125C137.485 8.59896 136.717 8.38281 135.847 8.38281C134.977 8.38281 134.209 8.59896 133.542 9.03125C132.875 9.45833 132.352 10.0911 131.972 10.9297C131.597 11.763 131.409 12.7865 131.409 14C131.409 15.2135 131.597 16.2396 131.972 17.0781C132.352 17.9115 132.875 18.5443 133.542 18.9766C134.209 19.4036 134.977 19.6172 135.847 19.6172C136.717 19.6172 137.485 19.4036 138.151 18.9766C138.818 18.5443 139.339 17.9115 139.714 17.0781C140.094 16.2396 140.284 15.2135 140.284 14ZM152.099 22V6H158.099C159.328 6 160.359 6.21354 161.192 6.64062C162.031 7.06771 162.664 7.66667 163.091 8.4375C163.523 9.20312 163.739 10.0964 163.739 11.1172C163.739 12.1432 163.52 13.0339 163.083 13.7891C162.651 14.5391 162.013 15.1198 161.169 15.5312C160.325 15.9375 159.289 16.1406 158.059 16.1406H153.786V13.7344H157.669C158.388 13.7344 158.976 13.6354 159.434 13.4375C159.893 13.2344 160.231 12.9401 160.45 12.5547C160.674 12.1641 160.786 11.6849 160.786 11.1172C160.786 10.5495 160.674 10.0651 160.45 9.66406C160.226 9.25781 159.885 8.95052 159.427 8.74219C158.968 8.52865 158.377 8.42188 157.653 8.42188H154.997V22H152.099ZM160.364 14.75L164.325 22H161.091L157.2 14.75H160.364Z" fill="#0E0E0C"/>
<circle cx="173" cy="19" r="3" fill="#D17A3A"/>
</svg>
